# xmcd
#
# Track frame offsets:
#	150
#	18130
#	29997
#	40071
#	53655
#	68751
#	83705
#	105827
#	122959
#	136483
#	149121
#	163580
#	179345
#	189998
#	203408
#
# Disc length: 2889 seconds
#
# Revision: 0
# Processed by: cddbd v1.5.2PL0 Copyright (c) Steve Scherf et al.
# Submitted via: audiograbber 1.83.01
#
DISCID=cb0b470f
DTITLE=Joe Wright - Steelin' Country Classics Vol. 1
DYEAR=1998
DGENRE=Steel Guitar
TTITLE0=Take These Chains
TTITLE1=Jambalaya
TTITLE2=Anybody Going To San Antone
TTITLE3=There Goes My Everything
TTITLE4=Walking The Floor Over You
TTITLE5=The Other Woman
TTITLE6=Just Stay Here And Drink
TTITLE7=Slewfoot
TTITLE8=Fifteen Years Ago
TTITLE9=Six Days On The Road
TTITLE10=Crazy Arms
TTITLE11=I Love You Because
TTITLE12=Yonder Comes A Sucker
TTITLE13=Heartaches By The Number
TTITLE14=Make The World Go Away
EXTD=
EXTT0=
EXTT1=
EXTT2=
EXTT3=
EXTT4=
EXTT5=
EXTT6=
EXTT7=
EXTT8=
EXTT9=
EXTT10=
EXTT11=
EXTT12=
EXTT13=
EXTT14=
PLAYORDER=
